<svg xmlns="http://www.w3.org/2000/svg" width="14" height="14" viewBox="0 0 14 14">
    <path fill="#fff" d="M2.1 2.1A6.355 6.355 0 0 1 7 0a6.355 6.355 0 0 1 4.9 2.1A6.355 6.355 0 0 1 14 7a6.355 6.355 0 0 1-2.1 4.9A6.355 6.355 0 0 1 7 14a6.355 6.355 0 0 1-4.9-2.1A6.986 6.986 0 0 1 0 7a6.355 6.355 0 0 1 2.1-4.9zm5.833 10.5a2.866 2.866 0 0 0 1.75-1.05A5.1 5.1 0 0 0 10.5 9.1a1.932 1.932 0 0 0-.583-1.4A2.054 2.054 0 0 0 8.4 7H7.233a3.406 3.406 0 0 1-1.05-.233 1.059 1.059 0 0 1-.35-.817.606.606 0 0 1 .233-.467.884.884 0 0 1 .467-.233.8.8 0 0 1 .583.35c.233.117.35.233.467.233a.7.7 0 0 0 .467-.117.7.7 0 0 0 .117-.467 1.857 1.857 0 0 0-.583-1.167 4.826 4.826 0 0 0 .583-2.217.251.251 0 0 0-.233-.233A3.607 3.607 0 0 0 7 1.4a5.836 5.836 0 0 0-3.033.933 2.937 2.937 0 0 0-1.05 2.333 2.987 2.987 0 0 0 .933 2.217 3.187 3.187 0 0 0 2.217.933v.467a1.5 1.5 0 0 0 .466 1.167 1.7 1.7 0 0 0 1.05.7v2.1c0 .117 0 .117.117.233s.117.117.233.117z"/>
</svg>
